<?xml version="1.0" encoding="UTF-8" standalone="no"?>
<!-- Uploaded to: SVG Repo, www.svgrepo.com, Transformed by: SVG Repo Mixer Tools -->

<svg
   width="800px"
   height="800px"
   viewBox="0 0 48 48"
   fill="#ffffff"
   stroke="#ffffff"
   version="1.1"
   id="svg20"
   sodipodi:docname="logo.svg"
   inkscape:version="1.1.2 (0a00cf5339, 2022-02-04)"
   xmlns:inkscape="http://www.inkscape.org/namespaces/inkscape"
   xmlns:sodipodi="http://sodipodi.sourceforge.net/DTD/sodipodi-0.dtd"
   xmlns="http://www.w3.org/2000/svg"
   xmlns:svg="http://www.w3.org/2000/svg">
  <defs
     id="defs24" />
  <sodipodi:namedview
     id="namedview22"
     pagecolor="#ffffff"
     bordercolor="#666666"
     borderopacity="1.0"
     inkscape:pageshadow="2"
     inkscape:pageopacity="0.0"
     inkscape:pagecheckerboard="0"
     showgrid="false"
     inkscape:zoom="1.01"
     inkscape:cx="399.50495"
     inkscape:cy="399.50495"
     inkscape:window-width="1920"
     inkscape:window-height="1016"
     inkscape:window-x="0"
     inkscape:window-y="0"
     inkscape:window-maximized="1"
     inkscape:current-layer="svg20" />
  <g
     id="SVGRepo_bgCarrier"
     stroke-width="0" />
  <g
     id="SVGRepo_tracerCarrier"
     stroke-linecap="round"
     stroke-linejoin="round" />
  <g
     id="icons_Q2"
     data-name="icons Q2">
    <g
       id="g15">
      <path
         d="m 18,34 a 2,2 0 0 0 2,-2 v -7.2 l 1.6,1.6 a 1.9,1.9 0 0 0 3,-0.2 2.1,2.1 0 0 0 -0.2,-2.7 l -5,-4.9 a 1.9,1.9 0 0 0 -2.8,0 l -5,4.9 a 2.1,2.1 0 0 0 -0.2,2.7 1.9,1.9 0 0 0 3,0.2 L 16,24.8 V 32 a 2,2 0 0 0 2,2 z"
         id="path9" />
      <path
         d="m 36.6,28.8 a 1.9,1.9 0 0 0 -3,-0.2 L 32,30.2 V 23 a 2,2 0 0 0 -4,0 v 7.2 l -1.6,-1.6 a 1.9,1.9 0 0 0 -3,0.2 2.1,2.1 0 0 0 0.2,2.7 l 5,4.9 a 1.9,1.9 0 0 0 2.8,0 l 5,-4.9 a 2.1,2.1 0 0 0 0.2,-2.7 z"
         id="path11" />
      <path
         d="M 40.5,21.8 A 9.1,9.1 0 0 0 37.1,15.3 9.8,9.8 0 0 0 29.6,13 12.2,12.2 0 0 0 19.5,7 11.6,11.6 0 0 0 10.6,11 12.4,12.4 0 0 0 7.4,19.4 11.8,11.8 0 0 0 2.2,27.6 11.5,11.5 0 0 0 5.3,37.8 12.4,12.4 0 0 0 14,41 h 9 a 2,2 0 0 0 0,-4 h -9 a 8,8 0 0 1 -5.9,-2.1 7.6,7.6 0 0 1 -2,-6.7 7.3,7.3 0 0 1 1.5,-3.5 8.1,8.1 0 0 1 2.7,-2.5 1.8,1.8 0 0 0 1.1,-1.9 v 0 a 9.1,9.1 0 0 1 2.2,-6.6 7.7,7.7 0 0 1 5.9,-2.7 7,7 0 0 1 4.4,1.6 8.8,8.8 0 0 1 2.8,3.4 2,2 0 0 0 1.8,1.2 H 29 a 6.4,6.4 0 0 1 5.7,1.3 6,6 0 0 1 1.8,4.4 v 0.4 a 1.7,1.7 0 0 0 1.2,1.7 h 0.2 a 6.1,6.1 0 0 1 -1.3,11.8 2,2 0 0 0 -1.6,2 v 0 a 1.9,1.9 0 0 0 2.4,1.9 10.1,10.1 0 0 0 8.6,-9.6 9.9,9.9 0 0 0 -5.5,-9.3 z"
         id="path13" />
    </g>
  </g>
</svg>
